<svg viewBox="0 0 800 1000" preserveAspectRatio="xMidYMid slice" xmlns="http://www.w3.org/2000/svg">
  <defs>
    <linearGradient id="g" x1="0" y1="0" x2="1" y2="1"><stop offset="0" stop-color="#EFE6D8"/><stop offset="1" stop-color="#D9C6A8"/></linearGradient>
    <filter id="b" x="-40%" y="-40%" width="180%" height="180%"><feGaussianBlur stdDeviation="45"/></filter>
  </defs>
  <rect width="800" height="1000" fill="url(#g)"/>
  <g filter="url(#b)" opacity="0.45"><circle cx="230" cy="220" r="170" fill="#FFFFFF"/><circle cx="620" cy="770" r="200" fill="#B79B6E"/></g>
  <ellipse cx="400" cy="430" rx="250" ry="250" fill="#FDFAF3" opacity="0.85"/>
  <g stroke="#5A4A2E" stroke-opacity="0.14" stroke-width="2">
    <rect x="310" y="440" width="180" height="130" rx="30" fill="#EDE0C7"/>
    <rect x="322" y="402" width="156" height="46" rx="16" fill="#C7A874"/>
    <ellipse cx="400" cy="440" rx="78" ry="14" fill="#FBF5E7"/>
    <path d="M368 434 q32 -30 64 0 q-8 12 -32 12 q-24 0 -32 -12z" fill="#FBF5E7" stroke="none"/>
  </g>
  <g transform="translate(470 400) rotate(24)"><path d="M0 0 C34 -26 86 -26 120 0 C86 26 34 26 0 0 Z" fill="#4C7A52" fill-opacity="0.75"/></g>
</svg>
