<svg viewBox="0 0 800 1000" preserveAspectRatio="xMidYMid slice" xmlns="http://www.w3.org/2000/svg">
  <defs>
    <linearGradient id="g" x1="0" y1="0" x2="1" y2="1"><stop offset="0" stop-color="#DDECE4"/><stop offset="1" stop-color="#B9D3C6"/></linearGradient>
    <filter id="b" x="-40%" y="-40%" width="180%" height="180%"><feGaussianBlur stdDeviation="45"/></filter>
  </defs>
  <rect width="800" height="1000" fill="url(#g)"/>
  <g filter="url(#b)" opacity="0.45"><circle cx="230" cy="220" r="170" fill="#FFFFFF"/><circle cx="620" cy="770" r="200" fill="#7FA98C"/></g>
  <ellipse cx="400" cy="430" rx="250" ry="250" fill="#FBFDFB" opacity="0.85"/>
  <g stroke="#2B3D2E" stroke-opacity="0.14" stroke-width="2">
    <rect x="330" y="360" width="140" height="210" rx="34" fill="#EAF1EC"/>
    <path d="M330 470 h140 v66 a34 34 0 0 1 -34 34 h-72 a34 34 0 0 1 -34 -34 z" fill="#8FB79E" stroke="none"/>
    <rect x="378" y="326" width="44" height="36" rx="8" fill="#DCE8DF"/>
    <rect x="360" y="286" width="80" height="44" rx="14" fill="#4C7A52" stroke="none"/>
  </g>
  <g transform="translate(468 356) rotate(26)"><path d="M0 0 C40 -30 100 -30 140 0 C100 30 40 30 0 0 Z" fill="#4C7A52" fill-opacity="0.8"/></g>
</svg>
