<svg viewBox="0 0 800 1000" preserveAspectRatio="xMidYMid slice" xmlns="http://www.w3.org/2000/svg">
  <defs>
    <linearGradient id="g" x1="0" y1="0" x2="1" y2="1"><stop offset="0" stop-color="#E9DCEA"/><stop offset="1" stop-color="#C9B2CE"/></linearGradient>
    <filter id="b" x="-40%" y="-40%" width="180%" height="180%"><feGaussianBlur stdDeviation="45"/></filter>
  </defs>
  <rect width="800" height="1000" fill="url(#g)"/>
  <g filter="url(#b)" opacity="0.45"><circle cx="230" cy="220" r="170" fill="#FFFFFF"/><circle cx="620" cy="770" r="200" fill="#9A7BA6"/></g>
  <ellipse cx="400" cy="430" rx="250" ry="250" fill="#FBF7FB" opacity="0.85"/>
  <g stroke="#3E2036" stroke-opacity="0.14" stroke-width="2">
    <rect x="325" y="390" width="150" height="190" rx="26" fill="#CBA6D0"/>
    <rect x="378" y="352" width="44" height="40" rx="6" fill="#EBDBEC"/>
    <rect x="366" y="306" width="68" height="48" rx="12" fill="#7A3A64" stroke="none"/>
    <rect x="392" y="286" width="16" height="22" rx="5" fill="#7A3A64" stroke="none"/>
  </g>
  <g transform="translate(470 380) rotate(16)"><path d="M0 0 q54 -16 116 -6" fill="none" stroke="#4C7A52" stroke-opacity="0.7" stroke-width="4" stroke-linecap="round"/><ellipse cx="42" cy="-10" rx="20" ry="9" transform="rotate(-18 42 -10)" fill="#4C7A52" fill-opacity="0.8"/><ellipse cx="80" cy="-12" rx="20" ry="9" transform="rotate(-14 80 -12)" fill="#4C7A52" fill-opacity="0.8"/></g>
</svg>
