<svg viewBox="0 0 600 600" preserveAspectRatio="xMidYMid slice" xmlns="http://www.w3.org/2000/svg">
  <defs>
    <linearGradient id="g4" x1="0" y1="0" x2="1" y2="1"><stop offset="0" stop-color="#F1E8D7"/><stop offset="1" stop-color="#D9C29A"/></linearGradient>
    <filter id="b4" x="-40%" y="-40%" width="180%" height="180%"><feGaussianBlur stdDeviation="42"/></filter>
  </defs>
  <rect width="600" height="600" fill="url(#g4)"/>
  <g filter="url(#b4)" opacity="0.4"><circle cx="130" cy="120" r="140" fill="#FFFFFF"/><circle cx="470" cy="500" r="160" fill="#B08B4F"/></g>
  <circle cx="300" cy="300" r="170" fill="#FDFAF3" opacity="0.85"/>
  <g stroke="#5A4A2E" stroke-opacity="0.15" stroke-width="2">
    <rect x="220" y="300" width="160" height="110" rx="28" fill="#EDE0C7"/>
    <rect x="232" y="264" width="136" height="42" rx="14" fill="#C7A874"/>
    <ellipse cx="300" cy="300" rx="70" ry="13" fill="#FBF5E7"/>
    <path d="M272 296 q28 -26 56 0 q-7 11 -28 11 q-21 0 -28 -11z" fill="#FBF5E7" stroke="none"/>
  </g>
  <g transform="translate(360 270) rotate(24)"><path d="M0 0 C32 -24 82 -24 114 0 C82 24 32 24 0 0 Z" fill="#4C7A52" fill-opacity="0.75"/></g>
</svg>
