<svg viewBox="0 0 600 600" preserveAspectRatio="xMidYMid slice" xmlns="http://www.w3.org/2000/svg">
  <defs>
    <linearGradient id="g6" x1="0" y1="0" x2="1" y2="1"><stop offset="0" stop-color="#F1E7EC"/><stop offset="1" stop-color="#D3B7C1"/></linearGradient>
    <filter id="b6" x="-40%" y="-40%" width="180%" height="180%"><feGaussianBlur stdDeviation="42"/></filter>
  </defs>
  <rect width="600" height="600" fill="url(#g6)"/>
  <g filter="url(#b6)" opacity="0.4"><circle cx="130" cy="120" r="140" fill="#FFFFFF"/><circle cx="470" cy="500" r="160" fill="#A9645F"/></g>
  <circle cx="300" cy="300" r="170" fill="#FBF4F1" opacity="0.85"/>
  <g stroke="#5A2E24" stroke-opacity="0.15" stroke-width="2">
    <path d="M300 190 C340 250 356 285 356 315 a56 56 0 0 1 -112 0 C244 285 260 250 300 190 Z" fill="#E7C77A" fill-opacity="0.9"/>
    <path d="M300 250 C286 275 280 296 282 312" fill="none" stroke="#FBF5E7" stroke-opacity="0.7" stroke-width="4"/>
  </g>
  <g transform="translate(330 210) rotate(18)"><path d="M0 0 C30 -22 76 -22 106 0 C76 22 30 22 0 0 Z" fill="#4C7A52" fill-opacity="0.75"/></g>
</svg>
